<mxfile host="app.diagrams.net" modified="2022-01-10T19:01:42.700Z" agent="5.0 (Windows NT 10.0; Win64; x64) AppleWebKit/537.36 (KHTML, like Gecko) Chrome/97.0.4692.71 Safari/537.36" etag="GrLTZ4-cEQkn3Y1aiS4d" version="16.2.4" type="github">
  <diagram id="rvYDP2rO8PoKNCCjEPp4" name="Page-1">
    <mxGraphModel dx="1632" dy="1536" grid="1" gridSize="10" guides="1" tooltips="1" connect="1" arrows="1" fold="1" page="1" pageScale="1" pageWidth="850" pageHeight="1100" math="0" shadow="0">
      <root>
        <mxCell id="0" />
        <mxCell id="1" parent="0" />
        <mxCell id="1SazOjbdH0pZ6iAJVFHq-1" value="" style="ellipse;shape=cloud;whiteSpace=wrap;html=1;" vertex="1" parent="1">
          <mxGeometry x="-30" y="-90" width="1010" height="660" as="geometry" />
        </mxCell>
        <mxCell id="1SazOjbdH0pZ6iAJVFHq-8" value="" style="edgeStyle=orthogonalEdgeStyle;rounded=0;orthogonalLoop=1;jettySize=auto;html=1;entryX=0.07;entryY=0.4;entryDx=0;entryDy=0;entryPerimeter=0;" edge="1" parent="1" source="1SazOjbdH0pZ6iAJVFHq-3" target="1SazOjbdH0pZ6iAJVFHq-7">
          <mxGeometry relative="1" as="geometry" />
        </mxCell>
        <mxCell id="1SazOjbdH0pZ6iAJVFHq-3" value="www.oauth2.google.com" style="outlineConnect=0;dashed=0;verticalLabelPosition=bottom;verticalAlign=top;align=center;html=1;shape=mxgraph.aws3.virtual_private_cloud;fillColor=#F58534;gradientColor=none;" vertex="1" parent="1">
          <mxGeometry x="110" y="310" width="50" height="30" as="geometry" />
        </mxCell>
        <mxCell id="1SazOjbdH0pZ6iAJVFHq-16" value="" style="edgeStyle=orthogonalEdgeStyle;rounded=0;orthogonalLoop=1;jettySize=auto;html=1;entryX=0.071;entryY=0.465;entryDx=0;entryDy=0;entryPerimeter=0;" edge="1" parent="1" source="1SazOjbdH0pZ6iAJVFHq-4" target="1SazOjbdH0pZ6iAJVFHq-14">
          <mxGeometry relative="1" as="geometry" />
        </mxCell>
        <mxCell id="1SazOjbdH0pZ6iAJVFHq-4" value="" style="outlineConnect=0;dashed=0;verticalLabelPosition=bottom;verticalAlign=top;align=center;html=1;shape=mxgraph.aws3.virtual_private_cloud;fillColor=#F58534;gradientColor=none;" vertex="1" parent="1">
          <mxGeometry x="210" y="71.97999999999999" width="50" height="30" as="geometry" />
        </mxCell>
        <mxCell id="1SazOjbdH0pZ6iAJVFHq-7" value="" style="ellipse;shape=cloud;whiteSpace=wrap;html=1;verticalAlign=top;fillColor=#F58534;dashed=0;gradientColor=none;" vertex="1" parent="1">
          <mxGeometry x="190" y="290" width="120" height="80" as="geometry" />
        </mxCell>
        <mxCell id="1SazOjbdH0pZ6iAJVFHq-5" value="Auth Server" style="sketch=0;outlineConnect=0;fontColor=#232F3E;gradientColor=none;strokeColor=#ffffff;fillColor=#232F3E;dashed=0;verticalLabelPosition=middle;verticalAlign=bottom;align=center;html=1;whiteSpace=wrap;fontSize=10;fontStyle=1;spacing=3;shape=mxgraph.aws4.productIcon;prIcon=mxgraph.aws4.ec2;" vertex="1" parent="1">
          <mxGeometry x="232.5" y="310" width="35" height="60" as="geometry" />
        </mxCell>
        <mxCell id="1SazOjbdH0pZ6iAJVFHq-14" value="" style="ellipse;shape=cloud;whiteSpace=wrap;html=1;verticalAlign=top;fillColor=#F58534;dashed=0;gradientColor=none;" vertex="1" parent="1">
          <mxGeometry x="298" y="21.97999999999999" width="154" height="130.5" as="geometry" />
        </mxCell>
        <mxCell id="1SazOjbdH0pZ6iAJVFHq-15" value="3rd App Server" style="sketch=0;outlineConnect=0;fontColor=#232F3E;gradientColor=none;strokeColor=#ffffff;fillColor=#232F3E;dashed=0;verticalLabelPosition=middle;verticalAlign=bottom;align=center;html=1;whiteSpace=wrap;fontSize=10;fontStyle=1;spacing=3;shape=mxgraph.aws4.productIcon;prIcon=mxgraph.aws4.ec2;" vertex="1" parent="1">
          <mxGeometry x="350.5" y="46.97999999999999" width="49" height="80.5" as="geometry" />
        </mxCell>
        <mxCell id="1SazOjbdH0pZ6iAJVFHq-21" value="" style="ellipse;shape=cloud;whiteSpace=wrap;html=1;verticalAlign=top;fillColor=#F58534;dashed=0;gradientColor=none;" vertex="1" parent="1">
          <mxGeometry x="410" y="101.98" width="470" height="371" as="geometry" />
        </mxCell>
        <mxCell id="1SazOjbdH0pZ6iAJVFHq-10" value="Angular App" style="shape=image;html=1;verticalAlign=top;verticalLabelPosition=bottom;labelBackgroundColor=#ffffff;imageAspect=0;aspect=fixed;image=https://cdn2.iconfinder.com/data/icons/whcompare-isometric-web-hosting-servers/50/connected-globe-128.png" vertex="1" parent="1">
          <mxGeometry x="480" y="216" width="48" height="48" as="geometry" />
        </mxCell>
        <mxCell id="1SazOjbdH0pZ6iAJVFHq-11" value="Api Resource Server" style="sketch=0;outlineConnect=0;fontColor=#232F3E;gradientColor=none;strokeColor=#ffffff;fillColor=#232F3E;dashed=0;verticalLabelPosition=middle;verticalAlign=bottom;align=center;html=1;whiteSpace=wrap;fontSize=10;fontStyle=1;spacing=3;shape=mxgraph.aws4.productIcon;prIcon=mxgraph.aws4.ec2;" vertex="1" parent="1">
          <mxGeometry x="660" y="325" width="50" height="90" as="geometry" />
        </mxCell>
        <mxCell id="1SazOjbdH0pZ6iAJVFHq-22" value="User&amp;nbsp;&lt;br&gt;Management" style="sketch=0;outlineConnect=0;fontColor=#232F3E;gradientColor=none;strokeColor=#ffffff;fillColor=#232F3E;dashed=0;verticalLabelPosition=middle;verticalAlign=bottom;align=left;html=1;whiteSpace=wrap;fontSize=10;fontStyle=1;spacing=3;shape=mxgraph.aws4.productIcon;prIcon=mxgraph.aws4.ec2;" vertex="1" parent="1">
          <mxGeometry x="740" y="200" width="50" height="90" as="geometry" />
        </mxCell>
        <mxCell id="1SazOjbdH0pZ6iAJVFHq-41" style="edgeStyle=orthogonalEdgeStyle;rounded=0;orthogonalLoop=1;jettySize=auto;html=1;" edge="1" parent="1" source="1SazOjbdH0pZ6iAJVFHq-23" target="1SazOjbdH0pZ6iAJVFHq-10">
          <mxGeometry relative="1" as="geometry">
            <Array as="points">
              <mxPoint x="230" y="168" />
              <mxPoint x="230" y="200" />
              <mxPoint x="504" y="200" />
            </Array>
          </mxGeometry>
        </mxCell>
        <mxCell id="1SazOjbdH0pZ6iAJVFHq-65" value="1" style="edgeLabel;html=1;align=center;verticalAlign=middle;resizable=0;points=[];" vertex="1" connectable="0" parent="1SazOjbdH0pZ6iAJVFHq-41">
          <mxGeometry x="-0.072" relative="1" as="geometry">
            <mxPoint as="offset" />
          </mxGeometry>
        </mxCell>
        <mxCell id="1SazOjbdH0pZ6iAJVFHq-23" value="www.zamato.com" style="outlineConnect=0;dashed=0;verticalLabelPosition=bottom;verticalAlign=top;align=center;html=1;shape=mxgraph.aws3.virtual_private_cloud;fillColor=#F58534;gradientColor=none;" vertex="1" parent="1">
          <mxGeometry x="130" y="152.48" width="50" height="30" as="geometry" />
        </mxCell>
        <mxCell id="1SazOjbdH0pZ6iAJVFHq-31" value="Api Resource Server" style="sketch=0;outlineConnect=0;fontColor=#232F3E;gradientColor=none;strokeColor=#ffffff;fillColor=#232F3E;dashed=0;verticalLabelPosition=middle;verticalAlign=bottom;align=center;html=1;whiteSpace=wrap;fontSize=10;fontStyle=1;spacing=3;shape=mxgraph.aws4.productIcon;prIcon=mxgraph.aws4.ec2;" vertex="1" parent="1">
          <mxGeometry x="730" y="325" width="50" height="90" as="geometry" />
        </mxCell>
        <mxCell id="1SazOjbdH0pZ6iAJVFHq-38" value="" style="curved=1;endArrow=classic;html=1;rounded=0;" edge="1" parent="1" source="1SazOjbdH0pZ6iAJVFHq-15" target="1SazOjbdH0pZ6iAJVFHq-31">
          <mxGeometry width="50" height="50" relative="1" as="geometry">
            <mxPoint x="460" y="330" as="sourcePoint" />
            <mxPoint x="510" y="280" as="targetPoint" />
            <Array as="points">
              <mxPoint x="500" y="70" />
              <mxPoint x="630" y="80" />
              <mxPoint x="840" y="150" />
              <mxPoint x="850" y="250" />
              <mxPoint x="840" y="320" />
            </Array>
          </mxGeometry>
        </mxCell>
        <mxCell id="1SazOjbdH0pZ6iAJVFHq-39" value="Access API&#39;s" style="edgeLabel;html=1;align=center;verticalAlign=middle;resizable=0;points=[];labelBackgroundColor=#0DEFFF;" vertex="1" connectable="0" parent="1SazOjbdH0pZ6iAJVFHq-38">
          <mxGeometry x="-0.2952" y="-13" relative="1" as="geometry">
            <mxPoint x="11" y="8" as="offset" />
          </mxGeometry>
        </mxCell>
        <mxCell id="1SazOjbdH0pZ6iAJVFHq-72" value="2" style="edgeLabel;html=1;align=center;verticalAlign=middle;resizable=0;points=[];" vertex="1" connectable="0" parent="1SazOjbdH0pZ6iAJVFHq-38">
          <mxGeometry x="-0.6287" y="-6" relative="1" as="geometry">
            <mxPoint y="-6" as="offset" />
          </mxGeometry>
        </mxCell>
        <mxCell id="1SazOjbdH0pZ6iAJVFHq-42" value="&lt;b&gt;Login Allowed&lt;/b&gt;&lt;br&gt;1. Own Application user&lt;br&gt;2. Google Authorization Service&amp;nbsp;&lt;br&gt;3. Facebook Authorization Server" style="text;html=1;strokeColor=none;fillColor=none;align=left;verticalAlign=middle;whiteSpace=wrap;rounded=0;labelBackgroundColor=#0DEFFF;" vertex="1" parent="1">
          <mxGeometry x="440" y="350" width="190" height="30" as="geometry" />
        </mxCell>
        <mxCell id="1SazOjbdH0pZ6iAJVFHq-43" value="" style="curved=1;endArrow=classic;html=1;rounded=0;" edge="1" parent="1" source="1SazOjbdH0pZ6iAJVFHq-10" target="1SazOjbdH0pZ6iAJVFHq-5">
          <mxGeometry width="50" height="50" relative="1" as="geometry">
            <mxPoint x="450" y="240" as="sourcePoint" />
            <mxPoint x="500" y="190" as="targetPoint" />
            <Array as="points">
              <mxPoint x="320" y="220" />
            </Array>
          </mxGeometry>
        </mxCell>
        <mxCell id="1SazOjbdH0pZ6iAJVFHq-44" value="Google, Facebook, &lt;br&gt;Okta, Github Authorization" style="edgeLabel;html=1;align=center;verticalAlign=middle;resizable=0;points=[];labelBackgroundColor=#0DEFFF;" vertex="1" connectable="0" parent="1SazOjbdH0pZ6iAJVFHq-43">
          <mxGeometry x="0.2556" y="13" relative="1" as="geometry">
            <mxPoint x="22" y="19" as="offset" />
          </mxGeometry>
        </mxCell>
        <mxCell id="1SazOjbdH0pZ6iAJVFHq-66" value="2" style="edgeLabel;html=1;align=center;verticalAlign=middle;resizable=0;points=[];" vertex="1" connectable="0" parent="1SazOjbdH0pZ6iAJVFHq-43">
          <mxGeometry x="-0.5953" y="3" relative="1" as="geometry">
            <mxPoint as="offset" />
          </mxGeometry>
        </mxCell>
        <mxCell id="1SazOjbdH0pZ6iAJVFHq-45" value="" style="curved=1;endArrow=classic;html=1;rounded=0;" edge="1" parent="1" target="1SazOjbdH0pZ6iAJVFHq-22">
          <mxGeometry width="50" height="50" relative="1" as="geometry">
            <mxPoint x="530" y="245" as="sourcePoint" />
            <mxPoint x="490" y="160" as="targetPoint" />
            <Array as="points">
              <mxPoint x="600" y="270" />
            </Array>
          </mxGeometry>
        </mxCell>
        <mxCell id="1SazOjbdH0pZ6iAJVFHq-46" value="&lt;span style=&quot;&quot;&gt;Zamato Authorization&lt;/span&gt;" style="edgeLabel;html=1;align=center;verticalAlign=middle;resizable=0;points=[];labelBackgroundColor=#0DEFFF;" vertex="1" connectable="0" parent="1SazOjbdH0pZ6iAJVFHq-45">
          <mxGeometry x="0.2416" relative="1" as="geometry">
            <mxPoint x="-1" y="-7" as="offset" />
          </mxGeometry>
        </mxCell>
        <mxCell id="1SazOjbdH0pZ6iAJVFHq-67" value="2" style="edgeLabel;html=1;align=center;verticalAlign=middle;resizable=0;points=[];" vertex="1" connectable="0" parent="1SazOjbdH0pZ6iAJVFHq-45">
          <mxGeometry x="-0.5333" y="6" relative="1" as="geometry">
            <mxPoint y="1" as="offset" />
          </mxGeometry>
        </mxCell>
        <mxCell id="1SazOjbdH0pZ6iAJVFHq-48" value="" style="curved=1;endArrow=classic;html=1;rounded=0;" edge="1" parent="1" source="1SazOjbdH0pZ6iAJVFHq-22" target="1SazOjbdH0pZ6iAJVFHq-10">
          <mxGeometry width="50" height="50" relative="1" as="geometry">
            <mxPoint x="450" y="240" as="sourcePoint" />
            <mxPoint x="500" y="190" as="targetPoint" />
            <Array as="points">
              <mxPoint x="570" y="200" />
            </Array>
          </mxGeometry>
        </mxCell>
        <mxCell id="1SazOjbdH0pZ6iAJVFHq-49" value="Return &lt;br&gt;Jwt Token" style="edgeLabel;html=1;align=center;verticalAlign=middle;resizable=0;points=[];labelBackgroundColor=#0DEFFF;" vertex="1" connectable="0" parent="1SazOjbdH0pZ6iAJVFHq-48">
          <mxGeometry x="-0.3766" relative="1" as="geometry">
            <mxPoint x="-50" y="-5" as="offset" />
          </mxGeometry>
        </mxCell>
        <mxCell id="1SazOjbdH0pZ6iAJVFHq-69" value="3" style="edgeLabel;html=1;align=center;verticalAlign=middle;resizable=0;points=[];" vertex="1" connectable="0" parent="1SazOjbdH0pZ6iAJVFHq-48">
          <mxGeometry x="0.6767" y="10" relative="1" as="geometry">
            <mxPoint y="1" as="offset" />
          </mxGeometry>
        </mxCell>
        <mxCell id="1SazOjbdH0pZ6iAJVFHq-50" value="" style="curved=1;endArrow=classic;html=1;rounded=0;" edge="1" parent="1" source="1SazOjbdH0pZ6iAJVFHq-5" target="1SazOjbdH0pZ6iAJVFHq-10">
          <mxGeometry width="50" height="50" relative="1" as="geometry">
            <mxPoint x="450" y="230" as="sourcePoint" />
            <mxPoint x="500" y="180" as="targetPoint" />
            <Array as="points">
              <mxPoint x="390" y="300" />
            </Array>
          </mxGeometry>
        </mxCell>
        <mxCell id="1SazOjbdH0pZ6iAJVFHq-51" value="Return&lt;br&gt;Oauth2 Token" style="edgeLabel;html=1;align=center;verticalAlign=middle;resizable=0;points=[];labelBackgroundColor=#0DEFFF;" vertex="1" connectable="0" parent="1SazOjbdH0pZ6iAJVFHq-50">
          <mxGeometry x="-0.1578" y="1" relative="1" as="geometry">
            <mxPoint x="10" y="-8" as="offset" />
          </mxGeometry>
        </mxCell>
        <mxCell id="1SazOjbdH0pZ6iAJVFHq-68" value="3" style="edgeLabel;html=1;align=center;verticalAlign=middle;resizable=0;points=[];" vertex="1" connectable="0" parent="1SazOjbdH0pZ6iAJVFHq-50">
          <mxGeometry x="0.4011" relative="1" as="geometry">
            <mxPoint as="offset" />
          </mxGeometry>
        </mxCell>
        <mxCell id="1SazOjbdH0pZ6iAJVFHq-57" value="" style="endArrow=classic;startArrow=classic;html=1;rounded=0;exitX=0.75;exitY=1;exitDx=0;exitDy=0;" edge="1" parent="1" source="1SazOjbdH0pZ6iAJVFHq-10" target="1SazOjbdH0pZ6iAJVFHq-11">
          <mxGeometry width="50" height="50" relative="1" as="geometry">
            <mxPoint x="460" y="260" as="sourcePoint" />
            <mxPoint x="510" y="210" as="targetPoint" />
          </mxGeometry>
        </mxCell>
        <mxCell id="1SazOjbdH0pZ6iAJVFHq-70" value="4" style="edgeLabel;html=1;align=center;verticalAlign=middle;resizable=0;points=[];" vertex="1" connectable="0" parent="1SazOjbdH0pZ6iAJVFHq-57">
          <mxGeometry x="-0.5098" y="-2" relative="1" as="geometry">
            <mxPoint as="offset" />
          </mxGeometry>
        </mxCell>
        <mxCell id="1SazOjbdH0pZ6iAJVFHq-58" value="" style="endArrow=classic;startArrow=classic;html=1;rounded=0;" edge="1" parent="1">
          <mxGeometry width="50" height="50" relative="1" as="geometry">
            <mxPoint x="520" y="264" as="sourcePoint" />
            <mxPoint x="730" y="362.29787234042556" as="targetPoint" />
          </mxGeometry>
        </mxCell>
        <mxCell id="1SazOjbdH0pZ6iAJVFHq-59" value="Http Request With&lt;br&gt;Token" style="edgeLabel;html=1;align=center;verticalAlign=middle;resizable=0;points=[];labelBackgroundColor=#0DEFFF;" vertex="1" connectable="0" parent="1SazOjbdH0pZ6iAJVFHq-58">
          <mxGeometry x="-0.1633" y="-4" relative="1" as="geometry">
            <mxPoint as="offset" />
          </mxGeometry>
        </mxCell>
        <mxCell id="1SazOjbdH0pZ6iAJVFHq-71" value="4" style="edgeLabel;html=1;align=center;verticalAlign=middle;resizable=0;points=[];" vertex="1" connectable="0" parent="1SazOjbdH0pZ6iAJVFHq-58">
          <mxGeometry x="-0.5896" y="1" relative="1" as="geometry">
            <mxPoint x="-1" as="offset" />
          </mxGeometry>
        </mxCell>
        <mxCell id="1SazOjbdH0pZ6iAJVFHq-61" value="Resource Server Parse token and verify user Resource Access Permission" style="text;html=1;strokeColor=none;fillColor=none;align=center;verticalAlign=middle;whiteSpace=wrap;rounded=0;labelBackgroundColor=#0DEFFF;" vertex="1" parent="1">
          <mxGeometry x="650" y="420" width="170" height="30" as="geometry" />
        </mxCell>
        <mxCell id="1SazOjbdH0pZ6iAJVFHq-73" value="" style="curved=1;endArrow=classic;html=1;rounded=0;" edge="1" parent="1" source="1SazOjbdH0pZ6iAJVFHq-15">
          <mxGeometry width="50" height="50" relative="1" as="geometry">
            <mxPoint x="409.5" y="101.69291999999996" as="sourcePoint" />
            <mxPoint x="750" y="242.26415094339632" as="targetPoint" />
            <Array as="points">
              <mxPoint x="510" y="120" />
            </Array>
          </mxGeometry>
        </mxCell>
        <mxCell id="1SazOjbdH0pZ6iAJVFHq-74" value="&lt;span style=&quot;&quot;&gt;3rd Party App &lt;br&gt;Register Itself&lt;br&gt;As User&lt;/span&gt;" style="edgeLabel;html=1;align=center;verticalAlign=middle;resizable=0;points=[];labelBackgroundColor=#0DEFFF;" vertex="1" connectable="0" parent="1SazOjbdH0pZ6iAJVFHq-73">
          <mxGeometry x="-0.2952" y="-13" relative="1" as="geometry">
            <mxPoint x="11" y="8" as="offset" />
          </mxGeometry>
        </mxCell>
        <mxCell id="1SazOjbdH0pZ6iAJVFHq-75" value="1" style="edgeLabel;html=1;align=center;verticalAlign=middle;resizable=0;points=[];" vertex="1" connectable="0" parent="1SazOjbdH0pZ6iAJVFHq-73">
          <mxGeometry x="-0.6287" y="-6" relative="1" as="geometry">
            <mxPoint as="offset" />
          </mxGeometry>
        </mxCell>
      </root>
    </mxGraphModel>
  </diagram>
</mxfile>
